<svg width="293" height="229" viewBox="0 0 293 229" fill="none" xmlns="http://www.w3.org/2000/svg">
<path d="M68.8567 203.436C120.112 230.209 203.177 230.209 254.421 203.436C305.665 176.662 305.677 133.27 254.421 106.496C203.165 79.7224 120.1 79.7284 68.8567 106.496C17.6129 133.264 17.619 176.668 68.8567 203.436Z" fill="#F5F5F5"/>
<path d="M21.8834 177.931H24.3599C25.495 174.141 26.2391 170.244 26.5805 166.303C27.1201 159.004 23.5851 147.832 17.1102 144.09C10.6352 140.347 7.12793 144.975 9.30008 148.932C11.4722 152.889 18.7981 164.144 18.8949 173.829L21.8834 177.931Z" fill="#0284C7"/>
<path d="M21.2877 177.932H21.9794C22.6553 173.152 22.6553 168.301 21.9794 163.522C20.8588 154.052 17.7458 149.652 14.8542 146.594C14.7909 146.527 14.7036 146.488 14.6115 146.486C14.5194 146.483 14.43 146.517 14.3631 146.581C14.2961 146.644 14.257 146.731 14.2544 146.823C14.2518 146.915 14.2859 147.005 14.3492 147.072C17.1647 150.039 20.1947 154.328 21.2669 163.598C21.9522 168.351 21.9592 173.177 21.2877 177.932Z" fill="white"/>
<path d="M22.0837 177.932C20.8109 171.927 15.0277 164.788 9.56963 163.557C3.23994 162.173 0.161563 165.514 1.06778 168.399C1.974 171.284 6.97549 172.626 11.8317 174.888C13.4669 175.645 14.9616 176.674 16.2521 177.932H22.0837Z" fill="#0284C7"/>
<path d="M19.7798 177.931H20.52C17.8428 171.2 11.7553 166.399 6.77454 165.956C6.72945 165.952 6.68386 165.956 6.64048 165.969C6.5971 165.982 6.5568 166.004 6.52196 166.033C6.48713 166.062 6.45848 166.098 6.4377 166.138C6.41692 166.178 6.40443 166.222 6.40098 166.268C6.39521 166.313 6.39883 166.359 6.41161 166.403C6.4244 166.446 6.44607 166.487 6.47528 166.522C6.50449 166.557 6.54061 166.586 6.58138 166.606C6.62216 166.627 6.66672 166.639 6.71228 166.641C11.4163 167.063 17.1649 171.574 19.7798 177.931Z" fill="white"/>
<path d="M245.394 114.641L250.575 117.36L251.011 114.115C248.445 106.88 250.554 98.6752 253.328 95.2578C256.102 91.8405 255.57 89.3294 254.567 88.2087C253.564 87.088 249.759 86.2372 245.996 90.6368C242.232 95.0365 241.368 100.377 241.997 105.766C242.398 109.135 244.169 112.594 245.394 114.641Z" fill="#0284C7"/>
<path opacity="0.2" d="M245.394 114.641L250.575 117.36L251.011 114.115C248.445 106.88 250.554 98.6752 253.328 95.2578C256.102 91.8405 255.57 89.3294 254.567 88.2087C253.564 87.088 249.759 86.2372 245.996 90.6368C242.232 95.0365 241.368 100.377 241.997 105.766C242.398 109.135 244.169 112.594 245.394 114.641Z" fill="black"/>
<path d="M247.532 115.762L248.555 116.302C248.545 116.282 248.534 116.264 248.521 116.246C247.054 114.503 245.159 105.967 245.954 100.965C246.937 94.7876 250.105 90.7546 252.817 89.0459C252.85 89.0255 252.879 88.9986 252.901 88.9668C252.924 88.935 252.94 88.899 252.948 88.8609C252.957 88.8228 252.957 88.7834 252.95 88.7451C252.943 88.7067 252.928 88.6702 252.907 88.6377C252.863 88.5716 252.795 88.5252 252.717 88.5084C252.64 88.4916 252.559 88.5058 252.492 88.5478C249.724 90.3257 246.376 94.497 245.359 100.875C244.626 105.531 246.093 112.905 247.532 115.762Z" fill="white"/>
<path d="M250.679 102.293C252.194 106.008 252.187 107.827 249.717 108.208C247.49 108.54 244.785 111.244 247.296 115.637L261.989 123.343C262.026 122.522 262.229 121.717 262.586 120.976C262.942 120.236 263.446 119.575 264.065 119.034C266.479 116.62 268.706 114.8 268.36 112.116C268.015 109.432 265.683 106.845 265.296 104.507C264.908 102.168 266.098 100.833 268.637 98.2115C271.176 95.5897 273.479 91.5221 270.09 89.6682C266.7 87.8142 262.819 90.9895 261.201 93.127C259.582 95.2646 258.101 96.2054 254.912 96.0255C251.723 95.8457 249.164 98.5782 250.679 102.293Z" fill="#0284C7"/>
<path d="M254.836 119.594C254.767 108.194 262.937 94.8429 267.482 92.145C267.549 92.1022 267.597 92.0353 267.616 91.9582C267.635 91.881 267.624 91.7993 267.585 91.73C267.544 91.6634 267.478 91.6155 267.402 91.5961C267.326 91.5768 267.246 91.5876 267.177 91.6262C262.57 94.3933 254.331 107.751 254.241 119.297L254.836 119.594Z" fill="white"/>
<path d="M257.022 107.744C256.96 107.759 256.895 107.751 256.837 107.724C256.779 107.696 256.732 107.65 256.704 107.592C255.384 105.13 254.274 102.561 253.384 99.9134C253.372 99.8762 253.367 99.837 253.371 99.798C253.374 99.7591 253.385 99.7212 253.403 99.6865C253.421 99.6518 253.446 99.621 253.476 99.5959C253.506 99.5707 253.54 99.5517 253.577 99.5399C253.615 99.528 253.654 99.5237 253.693 99.527C253.732 99.5304 253.77 99.5414 253.804 99.5593C253.839 99.5773 253.87 99.602 253.895 99.6319C253.92 99.6617 253.939 99.6963 253.951 99.7336C254.833 102.345 255.929 104.878 257.23 107.308C257.267 107.379 257.274 107.462 257.251 107.538C257.228 107.614 257.176 107.678 257.105 107.717L257.022 107.744Z" fill="white"/>
<path d="M255.058 114.731C255.001 114.741 254.943 114.736 254.889 114.715C254.835 114.695 254.788 114.659 254.753 114.613C254.708 114.547 254.69 114.466 254.704 114.387C254.719 114.308 254.764 114.237 254.829 114.191C257.808 112.106 261.423 111.127 265.047 111.424C265.126 111.434 265.197 111.475 265.246 111.538C265.295 111.601 265.316 111.681 265.306 111.76C265.296 111.839 265.255 111.91 265.192 111.959C265.129 112.008 265.05 112.029 264.971 112.019C261.501 111.755 258.044 112.685 255.175 114.655C255.142 114.688 255.102 114.714 255.058 114.731Z" fill="white"/>
<path d="M168.241 45.0912L151.382 35.358L134.531 45.0912L151.382 54.8244L168.241 45.0912Z" fill="#F5F5F5"/>
<path d="M151.382 74.2978L168.241 64.5646V45.0913L151.382 54.8245V74.2978Z" fill="#EBEBEB"/>
<path d="M154.634 67.836C154.545 67.8376 154.457 67.8162 154.378 67.7737C154.271 67.6951 154.185 67.5903 154.129 67.4692C154.073 67.3481 154.05 67.2148 154.06 67.082V65.0066V64.8545H154.164L155.782 63.9067V66.2103C155.78 66.507 155.707 66.7988 155.568 67.0612C155.43 67.3237 155.231 67.549 154.987 67.7184C154.882 67.7891 154.76 67.8297 154.634 67.836ZM154.323 65.1588V67.0681C154.311 67.157 154.322 67.2473 154.355 67.3307C154.388 67.4142 154.441 67.488 154.51 67.5454C154.566 67.5705 154.627 67.5798 154.688 67.5725C154.749 67.5652 154.807 67.5415 154.855 67.5039C155.063 67.3594 155.233 67.1684 155.353 66.9461C155.473 66.7239 155.54 66.4767 155.547 66.2242V66.0581H154.945L154.828 65.2488L154.323 65.1588ZM155.153 65.7953H155.527V64.3771L154.558 64.9375L155.035 65.0274L155.153 65.7953Z" fill="white"/>
<path d="M154.924 69.4828C154.889 69.4828 154.856 69.4689 154.831 69.4443C154.807 69.4196 154.793 69.3862 154.793 69.3514V67.6219C154.792 67.6044 154.794 67.5869 154.801 67.5705C154.807 67.5541 154.817 67.5392 154.829 67.5268C154.841 67.5143 154.856 67.5047 154.873 67.4985C154.889 67.4922 154.907 67.4895 154.924 67.4905C154.959 67.4905 154.992 67.5043 155.017 67.529C155.042 67.5536 155.056 67.5871 155.056 67.6219V69.3237C155.058 69.3429 155.057 69.3626 155.052 69.3814C155.047 69.4002 155.038 69.4176 155.025 69.4327C155.013 69.4477 154.998 69.4599 154.98 69.4685C154.963 69.4772 154.944 69.482 154.924 69.4828Z" fill="white"/>
<path d="M154.17 69.9188C154.147 69.9187 154.125 69.9121 154.105 69.8999C154.085 69.8877 154.07 69.8703 154.059 69.8496C154.05 69.8355 154.043 69.8194 154.041 69.8026C154.038 69.7857 154.039 69.7684 154.044 69.7519C154.048 69.7355 154.056 69.7202 154.067 69.7072C154.079 69.6942 154.092 69.6838 154.108 69.6767L155.609 68.8051C155.624 68.7964 155.641 68.7908 155.658 68.7885C155.675 68.7863 155.692 68.7874 155.709 68.7919C155.726 68.7964 155.741 68.8042 155.755 68.8147C155.769 68.8253 155.78 68.8385 155.789 68.8535C155.805 68.8841 155.808 68.9195 155.799 68.9528C155.791 68.9861 155.769 69.0148 155.74 69.0334L154.232 69.8981L154.17 69.9188Z" fill="white"/>
<path d="M159.538 66.9305C159.491 66.9449 159.44 66.9449 159.393 66.9305C159.342 66.8966 159.301 66.8499 159.275 66.7953C159.248 66.7406 159.236 66.6799 159.24 66.6192V66.2664C159.24 66.2495 159.242 66.2325 159.248 66.2166C159.254 66.2007 159.263 66.1862 159.274 66.1739C159.286 66.1615 159.3 66.1517 159.316 66.1451C159.331 66.1384 159.348 66.1349 159.365 66.135C159.383 66.134 159.4 66.1367 159.416 66.1429C159.433 66.1492 159.448 66.1588 159.46 66.1712C159.473 66.1836 159.482 66.1985 159.488 66.2149C159.495 66.2313 159.497 66.2489 159.496 66.2664V66.5569C159.496 66.6123 159.496 66.64 159.496 66.64C159.496 66.64 159.538 66.64 159.579 66.64C159.66 66.5668 159.724 66.4769 159.765 66.3764C159.807 66.276 159.826 66.1676 159.822 66.0589V63.7899C159.822 63.7729 159.825 63.7561 159.832 63.7406C159.838 63.725 159.848 63.7109 159.86 63.6993C159.873 63.6876 159.887 63.6786 159.903 63.6728C159.919 63.6669 159.936 63.6644 159.953 63.6654C159.986 63.6654 160.018 63.6785 160.041 63.7018C160.064 63.7252 160.078 63.7568 160.078 63.7899V66.1004C160.083 66.2544 160.052 66.4075 159.989 66.5479C159.925 66.6882 159.83 66.8121 159.711 66.9097C159.655 66.9275 159.596 66.9346 159.538 66.9305Z" fill="white"/>
<path d="M158.168 64.9175V64.6961C158.201 64.12 158.368 63.5595 158.656 63.0596C158.944 62.5598 159.346 62.1346 159.829 61.8183C160.001 61.673 160.215 61.5844 160.439 61.5644C160.664 61.5444 160.89 61.594 161.085 61.7066C161.281 61.8191 161.437 61.9891 161.533 62.1935C161.629 62.3979 161.659 62.6268 161.62 62.8491V62.9252L158.168 64.9175ZM160.603 61.846C160.375 61.8532 160.152 61.9225 159.96 62.0466C159.549 62.3176 159.201 62.6731 158.939 63.0895C158.676 63.5058 158.506 63.9734 158.438 64.4609L161.358 62.7799C161.369 62.6166 161.337 62.4533 161.267 62.3055C161.197 62.1577 161.09 62.0304 160.956 61.936C160.849 61.875 160.727 61.844 160.603 61.846Z" fill="white"/>
<path d="M164.166 64.2739C164.133 64.274 164.1 64.2611 164.076 64.2379C164.051 64.2147 164.037 64.183 164.035 64.1494V59.7359C164.035 59.701 164.049 59.6676 164.073 59.643C164.098 59.6183 164.131 59.6045 164.166 59.6045C164.201 59.6045 164.235 59.6183 164.259 59.643C164.284 59.6676 164.298 59.701 164.298 59.7359V64.1494C164.296 64.183 164.281 64.2147 164.257 64.2379C164.232 64.2611 164.2 64.274 164.166 64.2739Z" fill="white"/>
<path d="M163.813 60.7388H163.765C163.749 60.732 163.735 60.7221 163.723 60.7097C163.71 60.6974 163.701 60.6827 163.694 60.6667C163.688 60.6506 163.685 60.6334 163.685 60.6161C163.685 60.5988 163.689 60.5817 163.696 60.5658L164.159 59.5005L164.671 60.0954C164.682 60.1081 164.69 60.1229 164.696 60.1388C164.701 60.1547 164.703 60.1715 164.702 60.1882C164.7 60.2049 164.696 60.2212 164.688 60.2361C164.681 60.2511 164.67 60.2644 164.657 60.2753C164.645 60.2862 164.63 60.2945 164.614 60.2997C164.598 60.3049 164.581 60.3069 164.565 60.3056C164.548 60.3043 164.532 60.2998 164.517 60.2922C164.502 60.2846 164.488 60.2741 164.477 60.2614L164.228 59.9847L163.931 60.6765C163.919 60.6969 163.902 60.7136 163.881 60.7246C163.86 60.7357 163.837 60.7406 163.813 60.7388Z" fill="white"/>
<path d="M165.39 63.5962C165.357 63.5944 165.325 63.5798 165.302 63.5553C165.279 63.5309 165.266 63.4985 165.266 63.4648V59.0513C165.261 59.032 165.261 59.0119 165.266 58.9926C165.27 58.9733 165.279 58.9552 165.291 58.9397C165.303 58.9241 165.319 58.9116 165.337 58.903C165.355 58.8944 165.374 58.8899 165.394 58.8899C165.414 58.8899 165.433 58.8944 165.451 58.903C165.469 58.9116 165.485 58.9241 165.497 58.9397C165.509 58.9552 165.518 58.9733 165.522 58.9926C165.526 59.0119 165.526 59.032 165.522 59.0513V63.4648C165.522 63.4996 165.508 63.5331 165.483 63.5577C165.459 63.5824 165.425 63.5962 165.39 63.5962Z" fill="white"/>
<path d="M165.01 60.0541H164.962C164.946 60.0473 164.931 60.0374 164.919 60.025C164.907 60.0127 164.898 59.998 164.891 59.982C164.885 59.9659 164.882 59.9487 164.882 59.9314C164.882 59.9141 164.886 59.897 164.893 59.8811L165.356 58.8158L165.868 59.4107C165.891 59.4351 165.904 59.4672 165.904 59.5007C165.904 59.5341 165.891 59.5662 165.868 59.5906C165.842 59.6139 165.809 59.6269 165.775 59.6269C165.74 59.6269 165.707 59.6139 165.681 59.5906L165.439 59.307L165.142 59.9987C165.127 60.0196 165.107 60.036 165.084 60.0458C165.061 60.0556 165.035 60.0585 165.01 60.0541Z" fill="white"/>
<path d="M151.382 74.2978L134.524 64.5646L134.531 45.0913L151.382 54.8245V74.2978Z" fill="#E0E0E0"/>
<path d="M143.87 50.487L160.714 40.7469L158.812 39.647L141.961 49.3871L143.87 50.487Z" fill="white"/>
<path d="M137.084 56.2563L143.123 59.7152C143.47 59.944 143.759 60.2508 143.967 60.6111C144.175 60.9714 144.295 61.3753 144.32 61.7905V65.5122C144.32 66.2801 143.78 66.5914 143.123 66.204L137.084 62.7451C136.736 62.5167 136.447 62.21 136.239 61.8496C136.031 61.4892 135.91 61.0852 135.887 60.6698V56.9481C135.887 56.1802 136.426 55.8759 137.084 56.2563Z" fill="#0284C7"/>
<path d="M136.62 57.1832L136.848 57.3216V61.4514L136.62 61.32V57.1832Z" fill="#0284C7"/>
<path d="M137.554 57.723L137.948 57.9582V62.088L137.554 61.8598V57.723Z" fill="#0284C7"/>
<path d="M138.488 58.2622L138.716 58.3937V62.5305L138.488 62.399V58.2622Z" fill="#0284C7"/>
<path d="M139.186 58.6635L139.65 58.9333V63.0701L139.186 62.7933V58.6635Z" fill="#0284C7"/>
<path d="M140.348 59.3417L140.583 59.4732V63.61L140.348 63.4716V59.3417Z" fill="#0284C7"/>
<path d="M141.027 59.7223L141.511 60.0128V64.1427L141.02 63.8521L141.027 59.7223Z" fill="#0284C7"/>
<path d="M142.216 60.4207L142.444 60.5522V64.682L142.216 64.5506V60.4207Z" fill="#0284C7"/>
<path d="M142.749 60.7184L142.866 60.7876V64.9175L142.749 64.8552V60.7184Z" fill="#0284C7"/>
<path d="M141.795 60.1925L141.905 60.2617V64.3916L141.795 64.3293V60.1925Z" fill="#0284C7"/>
<path d="M139.913 59.0923L140.023 59.1546V63.2914L139.913 63.2222V59.0923Z" fill="#0284C7"/>
<path d="M138.882 58.4978L138.999 58.567V62.7038L138.882 62.6346V58.4978Z" fill="#0284C7"/>
<path d="M138.142 58.0897L138.26 58.1589V62.2957L138.142 62.2265V58.0897Z" fill="#0284C7"/>
<path d="M137.139 57.4809L137.256 57.5501V61.6869L137.139 61.6177V57.4809Z" fill="#0284C7"/>
<path d="M143.151 60.9531L143.379 61.0846V65.2214L143.151 65.0899V60.9531Z" fill="#0284C7"/>
<path d="M145.765 41.8468L126.091 30.4948L106.424 41.8468L126.091 53.2056L145.765 41.8468Z" fill="#F5F5F5"/>
<path d="M117.659 48.3354L137.333 36.9834L135.423 35.8835L115.756 47.2355L117.659 48.3354Z" fill="white"/>
<path d="M126.091 88.8936L145.765 77.5417V41.8464L126.091 53.2053V88.8936Z" fill="#EBEBEB"/>
<path d="M129.342 82.4675C129.252 82.469 129.163 82.445 129.086 82.3983C128.977 82.3211 128.89 82.2165 128.834 82.095C128.779 81.9736 128.756 81.8396 128.768 81.7065V79.6312V79.479H128.879L130.491 78.5313V80.8349C130.487 81.1313 130.413 81.4227 130.275 81.685C130.137 81.9472 129.938 82.1728 129.695 82.3429C129.591 82.4161 129.469 82.4591 129.342 82.4675ZM129.031 79.7903V81.6996C129.019 81.7884 129.03 81.8788 129.063 81.9622C129.096 82.0456 129.149 82.1195 129.218 82.1769C129.274 82.2019 129.335 82.2113 129.396 82.204C129.457 82.1967 129.515 82.173 129.564 82.1354C129.771 81.9909 129.941 81.7998 130.061 81.5776C130.181 81.3554 130.248 81.1081 130.255 80.8556V80.6896H129.654L129.536 79.8802L129.031 79.7903ZM129.861 80.4267H130.269V79.0086L129.301 79.5759L129.778 79.6589L129.861 80.4267Z" fill="white"/>
<path d="M129.633 84.0861C129.598 84.0861 129.565 84.0723 129.54 84.0476C129.515 84.023 129.501 83.9896 129.501 83.9547V82.2184C129.501 82.2014 129.505 82.1846 129.512 82.1691C129.518 82.1535 129.528 82.1394 129.54 82.1278C129.553 82.1161 129.567 82.1071 129.583 82.1013C129.599 82.0954 129.616 82.0929 129.633 82.0939C129.667 82.0938 129.699 82.1067 129.723 82.1299C129.748 82.153 129.763 82.1847 129.764 82.2184V83.9547C129.763 83.989 129.748 84.0215 129.724 84.0458C129.7 84.0701 129.667 84.0845 129.633 84.0861Z" fill="white"/>
<path d="M128.885 84.5429C128.863 84.5434 128.841 84.5379 128.821 84.5269C128.802 84.516 128.786 84.5 128.775 84.4806C128.759 84.45 128.755 84.4146 128.764 84.3813C128.773 84.3481 128.794 84.3193 128.823 84.3008L130.324 83.4361C130.339 83.4274 130.356 83.4218 130.373 83.4195C130.39 83.4173 130.407 83.4184 130.424 83.4229C130.441 83.4274 130.457 83.4352 130.47 83.4457C130.484 83.4563 130.495 83.4695 130.504 83.4845C130.513 83.4989 130.518 83.515 130.52 83.5316C130.522 83.5482 130.521 83.5651 130.517 83.5813C130.512 83.5974 130.504 83.6125 130.494 83.6256C130.483 83.6387 130.47 83.6495 130.456 83.6574L128.948 84.5291C128.929 84.5401 128.907 84.5449 128.885 84.5429Z" fill="white"/>
<path d="M134.247 81.5333C134.197 81.5334 134.147 81.5216 134.102 81.4987C134.051 81.4648 134.011 81.4181 133.984 81.3635C133.957 81.3088 133.945 81.2481 133.95 81.1874V80.8277C133.95 80.8107 133.953 80.794 133.96 80.7784C133.966 80.7628 133.976 80.7488 133.988 80.7371C134.001 80.7254 134.015 80.7164 134.031 80.7106C134.047 80.7047 134.064 80.7022 134.081 80.7032C134.097 80.7032 134.114 80.7064 134.129 80.7126C134.144 80.7189 134.157 80.7281 134.169 80.7396C134.181 80.7512 134.19 80.7649 134.196 80.78C134.202 80.7951 134.206 80.8113 134.206 80.8277V81.1874C134.206 81.2358 134.206 81.2635 134.206 81.2704C134.206 81.2773 134.247 81.2704 134.289 81.2704C134.369 81.196 134.433 81.1047 134.475 81.0032C134.516 80.9016 134.536 80.7921 134.531 80.6824V78.3788C134.531 78.344 134.545 78.3105 134.569 78.2859C134.594 78.2612 134.627 78.2474 134.662 78.2474C134.696 78.2491 134.729 78.2634 134.753 78.2877C134.777 78.312 134.792 78.3445 134.794 78.3788V80.6824C134.8 80.8373 134.77 80.9915 134.705 81.1323C134.64 81.273 134.542 81.3963 134.42 81.4918C134.366 81.5186 134.307 81.5328 134.247 81.5333Z" fill="white"/>
<path d="M132.878 79.5204V79.2921C132.91 78.717 133.078 78.1577 133.366 77.6591C133.654 77.1604 134.056 76.7365 134.538 76.4212C134.71 76.2759 134.924 76.1873 135.149 76.1673C135.373 76.1473 135.599 76.1969 135.794 76.3095C135.99 76.422 136.146 76.592 136.242 76.7964C136.338 77.0008 136.368 77.2297 136.329 77.452V77.5281L132.878 79.5204ZM135.313 76.442C135.084 76.4525 134.863 76.5216 134.669 76.6426C134.258 76.9143 133.909 77.271 133.646 77.6886C133.384 78.1062 133.214 78.5751 133.147 79.0638L136.067 77.3828C136.077 77.2187 136.046 77.0546 135.975 76.9058C135.905 76.757 135.799 76.6284 135.665 76.5319C135.557 76.473 135.436 76.4421 135.313 76.442Z" fill="white"/>
<path d="M138.903 78.8773C138.868 78.8773 138.835 78.8634 138.81 78.8388C138.785 78.8141 138.771 78.7807 138.771 78.7458V74.3324C138.771 74.2975 138.785 74.2641 138.81 74.2394C138.835 74.2148 138.868 74.2009 138.903 74.2009C138.938 74.2009 138.971 74.2148 138.996 74.2394C139.02 74.2641 139.034 74.2975 139.034 74.3324V78.7458C139.034 78.7807 139.02 78.8141 138.996 78.8388C138.971 78.8634 138.938 78.8773 138.903 78.8773Z" fill="white"/>
<path d="M138.522 75.3421H138.474C138.458 75.336 138.444 75.3269 138.432 75.3151C138.42 75.3034 138.41 75.2894 138.404 75.2739C138.397 75.2583 138.394 75.2417 138.394 75.2249C138.394 75.2081 138.398 75.1915 138.404 75.1761L138.868 74.1107L139.38 74.7057C139.402 74.7314 139.413 74.7647 139.41 74.7985C139.408 74.8322 139.392 74.8635 139.366 74.8855C139.34 74.9075 139.307 74.9185 139.273 74.9159C139.24 74.9133 139.208 74.8974 139.186 74.8717L138.937 74.5881L138.64 75.2798C138.628 75.3003 138.611 75.317 138.59 75.328C138.569 75.339 138.546 75.3439 138.522 75.3421Z" fill="white"/>
<path d="M140.099 78.1923C140.066 78.1923 140.034 78.1792 140.011 78.1558C139.988 78.1325 139.974 78.1008 139.974 78.0678V73.6543C139.973 73.6374 139.976 73.6205 139.982 73.6045C139.988 73.5886 139.997 73.5741 140.008 73.5618C140.02 73.5494 140.034 73.5397 140.05 73.533C140.065 73.5263 140.082 73.5229 140.099 73.5229C140.116 73.5219 140.134 73.5246 140.15 73.5308C140.167 73.5371 140.182 73.5467 140.194 73.5591C140.207 73.5715 140.216 73.5864 140.222 73.6028C140.229 73.6192 140.231 73.6368 140.23 73.6543V78.0678C140.23 78.0847 140.227 78.1015 140.22 78.1171C140.214 78.1327 140.204 78.1467 140.192 78.1584C140.179 78.17 140.165 78.1791 140.149 78.1849C140.133 78.1907 140.116 78.1933 140.099 78.1923Z" fill="white"/>
<path d="M139.726 74.6574H139.67C139.639 74.6424 139.615 74.6163 139.602 74.5843C139.589 74.5524 139.589 74.5168 139.601 74.4845L140.065 73.4192L140.583 74.0141C140.605 74.0391 140.617 74.071 140.617 74.104C140.617 74.137 140.605 74.1689 140.583 74.1939C140.571 74.2063 140.557 74.2161 140.541 74.2228C140.525 74.2294 140.507 74.2329 140.49 74.2329C140.473 74.2329 140.455 74.2294 140.439 74.2228C140.423 74.2161 140.409 74.2063 140.397 74.1939L140.154 73.9103L139.857 74.6021C139.843 74.6237 139.824 74.6405 139.8 74.6504C139.776 74.6603 139.751 74.6628 139.726 74.6574Z" fill="white"/>
<path d="M126.091 88.8936L106.424 77.5417V41.8464L126.091 53.2053V88.8936Z" fill="#E0E0E0"/>
<path d="M110.423 70.1197L116.455 73.5785C116.804 73.8061 117.095 74.1125 117.304 74.4729C117.513 74.8334 117.634 75.2378 117.659 75.6538V79.3824C117.659 80.1434 117.119 80.4547 116.455 80.0742L110.423 76.6154C110.074 76.3882 109.784 76.0818 109.576 75.7211C109.368 75.3605 109.248 74.9558 109.226 74.5401V70.8183C109.226 70.0159 109.766 69.7392 110.423 70.1197Z" fill="#F5F5F5"/>
<path d="M109.959 71.0462L110.187 71.1846V75.3145L109.959 75.183V71.0462Z" fill="#E0E0E0"/>
<path d="M110.893 71.586L111.287 71.8212V75.9579L110.893 75.7227V71.586Z" fill="#E0E0E0"/>
<path d="M111.82 72.1257L112.055 72.2571L112.048 76.3939L111.82 76.2625V72.1257Z" fill="#E0E0E0"/>
<path d="M112.526 72.5265L112.982 72.7963V76.9331L112.526 76.6564V72.5265Z" fill="#E0E0E0"/>
<path d="M113.688 73.2047L113.916 73.3361V77.4729L113.688 77.3346V73.2047Z" fill="#E0E0E0"/>
<path d="M114.358 73.5853L114.85 73.8758V78.0057L114.358 77.7151V73.5853Z" fill="#E0E0E0"/>
<path d="M115.556 74.2769L115.784 74.4152V78.5451L115.556 78.4136V74.2769Z" fill="#E0E0E0"/>
<path d="M116.088 74.5815L116.206 74.6506V78.7874L116.088 78.7182V74.5815Z" fill="#E0E0E0"/>
<path d="M115.133 74.0555L115.244 74.1247V78.2546L115.133 78.1923V74.0555Z" fill="#E0E0E0"/>
<path d="M113.252 72.9553L113.363 73.0176V77.1544L113.252 77.0852V72.9553Z" fill="#E0E0E0"/>
<path d="M112.221 72.3608L112.332 72.43V76.5668L112.221 76.4976V72.3608Z" fill="#E0E0E0"/>
<path d="M111.481 71.9522L111.598 72.0214V76.1582L111.481 76.089V71.9522Z" fill="#E0E0E0"/>
<path d="M110.478 71.3435L110.596 71.4127V75.5494L110.478 75.4803V71.3435Z" fill="#E0E0E0"/>
<path d="M116.489 74.8166L116.718 74.948V79.0848L116.489 78.9534V74.8166Z" fill="#E0E0E0"/>
<path d="M115.756 51.8427L117.659 52.9426V48.3354L115.756 47.2355V51.8427Z" fill="#F0F0F0"/>
<path d="M86.75 79.1607L72.7002 71.0531L53.0332 82.4051L67.083 90.5195L86.75 79.1607Z" fill="#F5F5F5"/>
<path d="M67.083 122.964L86.75 111.612V79.1607L67.083 90.5196V122.964Z" fill="#EBEBEB"/>
<path d="M70.3275 116.51C70.2395 116.512 70.1529 116.487 70.0785 116.441C69.9699 116.363 69.8834 116.258 69.8276 116.137C69.7718 116.016 69.7486 115.882 69.7603 115.749V113.673V113.521H69.864L71.4828 112.574V114.877C71.4794 115.174 71.4055 115.465 71.2671 115.727C71.1288 115.989 70.93 116.215 70.6872 116.385C70.5804 116.458 70.4563 116.501 70.3275 116.51ZM70.0231 113.833V115.742C70.0103 115.831 70.0207 115.922 70.0535 116.005C70.0862 116.089 70.1401 116.163 70.2099 116.219C70.2665 116.241 70.3277 116.249 70.3881 116.242C70.4485 116.235 70.5061 116.213 70.5558 116.178C70.763 116.033 70.9334 115.842 71.0536 115.62C71.1737 115.398 71.2401 115.15 71.2476 114.898V114.732H70.6457L70.5281 113.922L70.0231 113.833ZM70.8533 114.469H71.2268V113.044L70.2583 113.611L70.7357 113.694L70.8533 114.469Z" fill="white"/>
<path d="M70.625 118.156C70.5901 118.156 70.5567 118.142 70.532 118.118C70.5074 118.093 70.4935 118.059 70.4935 118.025V116.288C70.4935 116.271 70.4969 116.255 70.5036 116.239C70.5103 116.223 70.5201 116.209 70.5324 116.198C70.5447 116.186 70.5593 116.177 70.5752 116.171C70.5911 116.165 70.608 116.163 70.625 116.164C70.658 116.164 70.6897 116.177 70.713 116.2C70.7364 116.224 70.7495 116.255 70.7495 116.288V118.025C70.7495 118.058 70.7366 118.091 70.7135 118.115C70.6903 118.14 70.6586 118.154 70.625 118.156Z" fill="white"/>
<path d="M69.871 118.585C69.8486 118.586 69.8262 118.581 69.8066 118.57C69.7869 118.559 69.7709 118.542 69.7604 118.522C69.7504 118.508 69.7436 118.492 69.7403 118.475C69.737 118.458 69.7373 118.44 69.7412 118.423C69.7451 118.406 69.7526 118.39 69.763 118.377C69.7734 118.363 69.7867 118.351 69.8019 118.343L71.3099 117.478C71.3249 117.469 71.3414 117.464 71.3586 117.461C71.3758 117.459 71.3932 117.46 71.4099 117.465C71.4266 117.469 71.4423 117.477 71.456 117.488C71.4697 117.498 71.4812 117.511 71.4898 117.526C71.4983 117.541 71.5038 117.557 71.506 117.573C71.5081 117.59 71.5069 117.607 71.5024 117.623C71.4979 117.639 71.4901 117.654 71.4797 117.667C71.4692 117.68 71.4561 117.691 71.4414 117.699L69.9333 118.571C69.9145 118.582 69.8927 118.587 69.871 118.585Z" fill="white"/>
<path d="M75.2391 115.603C75.1886 115.603 75.1388 115.592 75.0938 115.569C75.0433 115.535 75.0027 115.488 74.9759 115.433C74.9492 115.379 74.9374 115.318 74.9416 115.257V114.898C74.9416 114.865 74.9548 114.833 74.9781 114.81C75.0015 114.786 75.0331 114.773 75.0662 114.773C75.0831 114.772 75.1 114.775 75.1159 114.781C75.1318 114.786 75.1464 114.795 75.1587 114.807C75.171 114.819 75.1808 114.833 75.1875 114.848C75.1942 114.864 75.1976 114.881 75.1976 114.898V115.257C75.1976 115.306 75.1976 115.333 75.1976 115.34C75.1976 115.347 75.2391 115.34 75.2806 115.34C75.3599 115.265 75.4225 115.173 75.4642 115.072C75.5059 114.971 75.5258 114.862 75.5227 114.752V112.449C75.5182 112.429 75.5181 112.409 75.5224 112.39C75.5268 112.371 75.5354 112.353 75.5477 112.337C75.56 112.322 75.5757 112.309 75.5935 112.3C75.6113 112.292 75.6309 112.287 75.6507 112.287C75.6705 112.287 75.6901 112.292 75.7079 112.3C75.7257 112.309 75.7414 112.322 75.7537 112.337C75.766 112.353 75.7746 112.371 75.779 112.39C75.7833 112.409 75.7832 112.429 75.7787 112.449V114.752C75.7844 114.906 75.7542 115.06 75.6906 115.2C75.627 115.341 75.5316 115.464 75.412 115.562C75.3583 115.589 75.2992 115.603 75.2391 115.603Z" fill="white"/>
<path d="M73.8696 113.597V113.369C73.9024 112.794 74.0697 112.234 74.3581 111.736C74.6464 111.237 75.0478 110.813 75.5299 110.498C75.7017 110.351 75.9148 110.261 76.1399 110.24C76.365 110.219 76.591 110.269 76.7867 110.382C76.9824 110.495 77.1383 110.666 77.2329 110.871C77.3274 111.077 77.356 111.306 77.3146 111.529V111.605L73.8696 113.597ZM76.3047 110.519C76.0765 110.529 75.8549 110.598 75.6613 110.719C75.2497 110.991 74.9009 111.348 74.6384 111.765C74.3759 112.183 74.2058 112.652 74.1394 113.14L77.0587 111.452C77.0684 111.289 77.0368 111.126 76.9666 110.979C76.8964 110.831 76.7901 110.704 76.6575 110.608C76.5519 110.548 76.4331 110.515 76.3116 110.512L76.3047 110.519Z" fill="white"/>
<path d="M79.8945 112.947C79.8596 112.947 79.8262 112.933 79.8016 112.908C79.7769 112.884 79.7631 112.85 79.7631 112.815V108.402C79.7631 108.367 79.7769 108.334 79.8016 108.309C79.8262 108.284 79.8596 108.27 79.8945 108.27C79.9293 108.27 79.9628 108.284 79.9874 108.309C80.0121 108.334 80.0259 108.367 80.0259 108.402V112.815C80.0259 112.85 80.0121 112.884 79.9874 112.908C79.9628 112.933 79.9293 112.947 79.8945 112.947Z" fill="white"/>
<path d="M79.5143 109.446H79.4658C79.4502 109.44 79.4359 109.431 79.4238 109.42C79.4118 109.408 79.4023 109.394 79.3958 109.378C79.3893 109.363 79.3861 109.346 79.3862 109.329C79.3864 109.312 79.3899 109.296 79.3967 109.28L79.8601 108.215L80.3721 108.81C80.3941 108.836 80.405 108.869 80.4024 108.903C80.3998 108.937 80.3839 108.968 80.3582 108.99C80.3455 109.001 80.3308 109.009 80.3148 109.014C80.2989 109.02 80.2821 109.022 80.2654 109.02C80.2317 109.018 80.2004 109.002 80.1784 108.976L79.9293 108.692L79.6319 109.384C79.6202 109.405 79.6029 109.421 79.5821 109.432C79.5613 109.443 79.5377 109.448 79.5143 109.446Z" fill="white"/>
<path d="M81.0918 112.262C81.0581 112.262 81.0256 112.249 81.0012 112.226C80.9767 112.203 80.9621 112.171 80.9603 112.138V107.724C80.9603 107.689 80.9742 107.656 80.9988 107.631C81.0235 107.607 81.0569 107.593 81.0918 107.593C81.1093 107.592 81.1268 107.594 81.1432 107.601C81.1596 107.607 81.1745 107.617 81.1869 107.629C81.1993 107.641 81.209 107.656 81.2152 107.673C81.2215 107.689 81.2242 107.707 81.2232 107.724V112.138C81.2232 112.155 81.2198 112.171 81.2131 112.187C81.2064 112.203 81.1966 112.217 81.1843 112.228C81.172 112.24 81.1575 112.249 81.1415 112.255C81.1256 112.261 81.1087 112.263 81.0918 112.262Z" fill="white"/>
<path d="M80.711 108.755C80.6954 108.761 80.6782 108.761 80.6626 108.755C80.6469 108.749 80.6327 108.74 80.6206 108.728C80.6086 108.716 80.599 108.702 80.5926 108.687C80.5861 108.671 80.5829 108.654 80.583 108.638C80.5832 108.621 80.5867 108.604 80.5934 108.589L81.0569 107.524L81.5688 108.118C81.5917 108.143 81.6044 108.175 81.6044 108.208C81.6044 108.242 81.5917 108.274 81.5688 108.298C81.5566 108.311 81.5421 108.32 81.526 108.327C81.51 108.334 81.4928 108.337 81.4754 108.337C81.4581 108.337 81.4409 108.334 81.4249 108.327C81.4088 108.32 81.3943 108.311 81.3821 108.298L81.1399 108.015L80.8425 108.706C80.8274 108.726 80.807 108.741 80.7837 108.75C80.7605 108.758 80.7353 108.76 80.711 108.755Z" fill="white"/>
<path d="M67.083 122.963L53.0332 114.856V82.4047L67.083 90.5191V122.963Z" fill="#E0E0E0"/>
<path d="M59.5566 90.7827L61.459 91.8826V87.2754L59.5566 86.1755V90.7827Z" fill="#F5F5F5"/>
<path d="M61.459 87.2754L81.1329 75.9165L79.2236 74.8166L59.5566 86.1754L61.459 87.2754Z" fill="white"/>
<path d="M61.4591 106.741L36.1749 92.1449L10.8838 106.741L36.1749 121.344L61.4591 106.741Z" fill="#F5F5F5"/>
<path d="M36.1747 140.811L61.4589 126.215V106.742L36.1747 121.345V140.811Z" fill="#EBEBEB"/>
<path d="M39.4194 134.35C39.3319 134.348 39.2462 134.325 39.1703 134.281C39.0622 134.203 38.9761 134.098 38.9204 133.977C38.8646 133.856 38.8411 133.722 38.8521 133.589V131.514V131.362H38.9559L40.5746 130.407V132.718C40.5701 133.013 40.4957 133.303 40.3574 133.564C40.2191 133.825 40.0209 134.049 39.7791 134.219C39.6727 134.293 39.5487 134.338 39.4194 134.35ZM39.1081 131.673V133.582C39.0958 133.67 39.1065 133.76 39.1393 133.842C39.172 133.925 39.2256 133.997 39.2949 134.053C39.3515 134.079 39.414 134.089 39.4759 134.083C39.5379 134.077 39.5971 134.054 39.6477 134.018C39.8541 133.873 40.0239 133.682 40.144 133.46C40.264 133.237 40.3309 132.991 40.3394 132.738V132.565H39.7168L39.5992 131.756L39.1081 131.673ZM39.9382 132.309H40.3394V130.891L39.3779 131.459L39.8552 131.542L39.9382 132.309Z" fill="white"/>
<path d="M39.7095 135.997C39.6932 135.997 39.677 135.994 39.6619 135.987C39.6468 135.981 39.633 135.972 39.6215 135.96C39.6099 135.949 39.6007 135.935 39.5945 135.92C39.5882 135.905 39.585 135.889 39.585 135.872V134.136C39.5805 134.117 39.5804 134.097 39.5847 134.077C39.589 134.058 39.5977 134.04 39.61 134.024C39.6223 134.009 39.638 133.996 39.6558 133.988C39.6736 133.979 39.6932 133.975 39.713 133.975C39.7328 133.975 39.7523 133.979 39.7702 133.988C39.788 133.996 39.8037 134.009 39.816 134.024C39.8283 134.04 39.8369 134.058 39.8412 134.077C39.8456 134.097 39.8455 134.117 39.841 134.136V135.872C39.841 135.889 39.8375 135.906 39.8309 135.922C39.8242 135.937 39.8144 135.951 39.8021 135.963C39.7898 135.975 39.7752 135.984 39.7593 135.989C39.7434 135.995 39.7264 135.998 39.7095 135.997Z" fill="white"/>
<path d="M38.9557 136.426C38.928 136.424 38.9016 136.414 38.8802 136.396C38.8588 136.378 38.8436 136.354 38.8367 136.327C38.8297 136.3 38.8315 136.272 38.8417 136.246C38.8519 136.22 38.8701 136.199 38.8935 136.184L40.4015 135.319C40.4152 135.309 40.4309 135.302 40.4475 135.299C40.464 135.296 40.4811 135.296 40.4975 135.3C40.5139 135.304 40.5293 135.312 40.5425 135.322C40.5558 135.332 40.5667 135.345 40.5745 135.36C40.5844 135.375 40.5912 135.391 40.5945 135.408C40.5978 135.425 40.5975 135.443 40.5936 135.46C40.5897 135.477 40.5823 135.492 40.5718 135.506C40.5614 135.52 40.5482 135.532 40.533 135.54L39.0249 136.426H38.9557Z" fill="white"/>
<path d="M44.3236 133.451C44.2781 133.461 44.2308 133.461 44.1853 133.451C44.1324 133.417 44.0897 133.37 44.0617 133.314C44.0336 133.258 44.0214 133.195 44.0262 133.133V132.78C44.0262 132.745 44.04 132.712 44.0647 132.687C44.0893 132.662 44.1227 132.648 44.1576 132.648C44.1925 132.648 44.2259 132.662 44.2505 132.687C44.2752 132.712 44.289 132.745 44.289 132.78V133.133C44.2795 133.162 44.2795 133.193 44.289 133.223C44.289 133.223 44.3305 133.223 44.379 133.223C44.457 133.146 44.5183 133.055 44.5588 132.953C44.5993 132.852 44.6181 132.744 44.6142 132.635V130.331C44.6158 130.297 44.6302 130.264 44.6545 130.24C44.6788 130.216 44.7113 130.201 44.7456 130.2C44.7805 130.2 44.8139 130.213 44.8385 130.238C44.8632 130.263 44.877 130.296 44.877 130.331V132.635C44.8827 132.789 44.8526 132.942 44.789 133.082C44.7253 133.223 44.63 133.347 44.5104 133.444C44.4495 133.461 44.3856 133.463 44.3236 133.451Z" fill="white"/>
<path d="M42.9613 131.438V131.21C42.9913 130.634 43.1575 130.073 43.4461 129.574C43.7347 129.075 44.1375 128.652 44.6216 128.339C44.7934 128.192 45.0065 128.102 45.2316 128.081C45.4567 128.06 45.6826 128.11 45.8784 128.223C46.0741 128.336 46.23 128.507 46.3245 128.712C46.4191 128.918 46.4477 129.147 46.4063 129.369V129.446L42.9613 131.438ZM45.3963 128.359C45.1663 128.371 44.9427 128.44 44.7461 128.56C44.3357 128.832 43.9883 129.189 43.727 129.607C43.4657 130.025 43.2967 130.493 43.2311 130.981L46.1434 129.293C46.1546 129.131 46.1243 128.968 46.0553 128.82C45.9863 128.673 45.881 128.545 45.7491 128.449C45.6417 128.388 45.5199 128.357 45.3963 128.359Z" fill="white"/>
<path d="M48.9865 130.795C48.9689 130.796 48.9514 130.793 48.935 130.787C48.9186 130.78 48.9037 130.771 48.8913 130.758C48.8789 130.746 48.8692 130.731 48.863 130.715C48.8567 130.698 48.854 130.681 48.855 130.663V126.25C48.8505 126.23 48.8504 126.21 48.8547 126.191C48.8591 126.172 48.8677 126.154 48.88 126.138C48.8923 126.122 48.908 126.11 48.9258 126.101C48.9436 126.093 48.9632 126.088 48.983 126.088C49.0028 126.088 49.0224 126.093 49.0402 126.101C49.058 126.11 49.0737 126.122 49.086 126.138C49.0983 126.154 49.1069 126.172 49.1113 126.191C49.1156 126.21 49.1155 126.23 49.111 126.25V130.663C49.1119 130.68 49.1094 130.697 49.1036 130.713C49.0977 130.729 49.0887 130.743 49.077 130.756C49.0654 130.768 49.0513 130.778 49.0358 130.784C49.0202 130.791 49.0034 130.795 48.9865 130.795Z" fill="white"/>
<path d="M48.6402 127.259H48.5849C48.5689 127.253 48.5545 127.243 48.5426 127.23C48.5307 127.218 48.5215 127.203 48.5157 127.187C48.5098 127.17 48.5074 127.153 48.5086 127.136C48.5098 127.118 48.5146 127.102 48.5226 127.086L48.9792 126.021L49.498 126.616C49.521 126.643 49.5324 126.677 49.5298 126.712C49.5272 126.747 49.5108 126.78 49.4842 126.803C49.4576 126.826 49.423 126.837 49.3879 126.835C49.3529 126.832 49.3204 126.816 49.2974 126.789L49.0553 126.505L48.7578 127.197C48.7456 127.217 48.7282 127.233 48.7075 127.244C48.6868 127.255 48.6636 127.26 48.6402 127.259Z" fill="white"/>
<path d="M50.1834 130.11C50.1486 130.11 50.1151 130.096 50.0905 130.071C50.0658 130.047 50.052 130.013 50.052 129.978V125.565C50.052 125.53 50.0658 125.497 50.0905 125.472C50.1151 125.447 50.1486 125.433 50.1834 125.433C50.2183 125.433 50.2517 125.447 50.2764 125.472C50.301 125.497 50.3149 125.53 50.3149 125.565V129.978C50.3149 130.013 50.301 130.047 50.2764 130.071C50.2517 130.096 50.2183 130.11 50.1834 130.11Z" fill="white"/>
<path d="M49.8027 126.575H49.7543C49.7386 126.569 49.7243 126.559 49.7123 126.548C49.7003 126.536 49.6907 126.522 49.6843 126.506C49.6778 126.491 49.6745 126.474 49.6747 126.457C49.6748 126.441 49.6784 126.424 49.6851 126.409L50.1486 125.336L50.6605 125.931C50.6728 125.944 50.6826 125.958 50.6893 125.974C50.696 125.99 50.6995 126.007 50.6995 126.025C50.6995 126.042 50.696 126.059 50.6893 126.075C50.6826 126.091 50.6728 126.106 50.6605 126.118C50.6489 126.13 50.6349 126.14 50.6195 126.146C50.604 126.153 50.5874 126.156 50.5706 126.156C50.5538 126.156 50.5371 126.153 50.5217 126.146C50.5062 126.14 50.4923 126.13 50.4807 126.118L50.2316 125.834L49.9342 126.526C49.9196 126.547 49.8993 126.562 49.8759 126.571C49.8524 126.579 49.827 126.581 49.8027 126.575Z" fill="white"/>
<path d="M36.1749 140.811L10.8838 126.215V106.742L36.1749 121.345V140.811Z" fill="#E0E0E0"/>
<path d="M22.575 118.101L24.4773 119.2V114.593L22.575 113.493V118.101Z" fill="#F5F5F5"/>
<path d="M24.4773 114.593L49.7684 99.9968L47.866 98.89L22.575 113.493L24.4773 114.593Z" fill="white"/>
<path d="M14.8893 118.792L20.9215 122.251C21.2705 122.479 21.5612 122.785 21.7702 123.146C21.9793 123.506 22.1009 123.91 22.1252 124.326V128.055C22.1252 128.816 21.5856 129.127 20.9215 128.747L14.8893 125.288C14.5404 125.061 14.2502 124.754 14.0422 124.394C13.8342 124.033 13.7144 123.628 13.6925 123.213V119.491C13.6925 118.716 14.2321 118.439 14.8893 118.792Z" fill="#F5F5F5"/>
<path d="M14.4259 119.719L14.6542 119.851V123.988L14.4259 123.856V119.719Z" fill="#E0E0E0"/>
<path d="M15.3527 120.259L15.7539 120.494V124.624L15.3527 124.396V120.259Z" fill="#E0E0E0"/>
<path d="M16.2867 120.798L16.5219 120.929L16.515 125.066L16.2867 124.935V120.798Z" fill="#E0E0E0"/>
<path d="M16.9921 121.199L17.4555 121.469L17.4486 125.606L16.9921 125.329V121.199Z" fill="#E0E0E0"/>
<path d="M18.1539 121.878L18.3822 122.009V126.146L18.1539 126.007V121.878Z" fill="#E0E0E0"/>
<path d="M18.8253 122.258L19.3165 122.549V126.678L18.8253 126.388V122.258Z" fill="#E0E0E0"/>
<path d="M20.0221 122.957L20.2504 123.088V127.218L20.0221 127.087V122.957Z" fill="#E0E0E0"/>
<path d="M20.5544 123.254L20.672 123.323V127.453L20.5544 127.391V123.254Z" fill="#E0E0E0"/>
<path d="M19.6001 122.728L19.7108 122.791V126.927L19.6001 126.865V122.728Z" fill="#E0E0E0"/>
<path d="M17.7186 121.628L17.8293 121.69V125.827L17.7186 125.758V121.628Z" fill="#E0E0E0"/>
<path d="M16.688 121.034L16.8056 121.103V125.233L16.688 125.17V121.034Z" fill="#E0E0E0"/>
<path d="M15.9476 120.625L16.0652 120.695V124.831L15.9476 124.762V120.625Z" fill="#E0E0E0"/>
<path d="M14.9445 120.017L15.0621 120.086V124.216L14.9445 124.154V120.017Z" fill="#E0E0E0"/>
<path d="M20.9557 123.489L21.184 123.628V127.758L20.9557 127.626V123.489Z" fill="#E0E0E0"/>
<path d="M55.8417 67.8086L36.1747 56.4498L16.5007 67.8086L36.1747 79.1606L55.8417 67.8086Z" fill="#F5F5F5"/>
<path d="M36.1747 118.1L55.8417 106.742V67.8087L36.1747 79.1607V118.1Z" fill="#EBEBEB"/>
<path d="M39.4194 111.64C39.3324 111.64 39.2467 111.619 39.1703 111.577C39.0622 111.499 38.9761 111.394 38.9204 111.273C38.8646 111.152 38.8411 111.019 38.8521 110.886V108.81V108.658H38.9559L40.5746 107.71V110.014C40.5707 110.31 40.4965 110.602 40.3582 110.864C40.2199 111.126 40.0215 111.351 39.7791 111.522C39.6715 111.592 39.5475 111.633 39.4194 111.64ZM39.1081 108.962V110.879C39.0971 110.966 39.1085 111.056 39.1411 111.138C39.1738 111.22 39.2267 111.293 39.2949 111.349C39.3515 111.375 39.414 111.385 39.4759 111.379C39.5379 111.373 39.5971 111.351 39.6477 111.315C39.8542 111.168 40.0241 110.975 40.1441 110.752C40.2641 110.529 40.3309 110.281 40.3394 110.028V109.862H39.7168L39.5992 109.052L39.1081 108.962ZM39.9382 109.599H40.3394V108.181L39.3779 108.748L39.8552 108.831L39.9382 109.599Z" fill="white"/>
<path d="M39.7095 113.286C39.6926 113.286 39.6758 113.283 39.6602 113.276C39.6447 113.269 39.6306 113.259 39.619 113.247C39.6073 113.235 39.5983 113.22 39.5924 113.204C39.5866 113.188 39.5841 113.171 39.585 113.155V111.425C39.5841 111.408 39.5866 111.391 39.5924 111.375C39.5983 111.359 39.6073 111.345 39.619 111.333C39.6306 111.32 39.6447 111.31 39.6602 111.304C39.6758 111.297 39.6926 111.294 39.7095 111.294C39.7271 111.293 39.7446 111.295 39.761 111.302C39.7774 111.308 39.7923 111.318 39.8047 111.33C39.8171 111.342 39.8268 111.357 39.833 111.374C39.8393 111.39 39.842 111.408 39.841 111.425V113.155C39.842 113.172 39.8393 113.19 39.833 113.206C39.8268 113.222 39.8171 113.237 39.8047 113.25C39.7923 113.262 39.7774 113.272 39.761 113.278C39.7446 113.284 39.7271 113.287 39.7095 113.286Z" fill="white"/>
<path d="M38.9557 113.721C38.928 113.72 38.9016 113.709 38.8802 113.692C38.8588 113.674 38.8436 113.65 38.8367 113.623C38.8297 113.596 38.8315 113.568 38.8417 113.542C38.8519 113.516 38.8701 113.494 38.8935 113.479L40.4015 112.608C40.4318 112.59 40.4678 112.586 40.5015 112.595C40.5352 112.604 40.564 112.626 40.5814 112.656C40.5988 112.686 40.6035 112.722 40.5944 112.756C40.5854 112.79 40.5632 112.819 40.533 112.836L39.0249 113.701C39.0046 113.715 38.9804 113.722 38.9557 113.721Z" fill="white"/>
<path d="M44.3237 110.74C44.2745 110.74 44.2264 110.726 44.1854 110.699C44.1325 110.667 44.0896 110.621 44.0615 110.566C44.0334 110.511 44.0212 110.449 44.0263 110.387V110.035C44.0263 110 44.0401 109.966 44.0648 109.942C44.0894 109.917 44.1228 109.903 44.1577 109.903C44.1926 109.903 44.226 109.917 44.2506 109.942C44.2753 109.966 44.2891 110 44.2891 110.035V110.387C44.2796 110.417 44.2796 110.448 44.2891 110.477C44.3185 110.486 44.3497 110.486 44.3791 110.477C44.458 110.403 44.5199 110.313 44.5606 110.213C44.6012 110.112 44.6195 110.004 44.6143 109.896V107.593C44.6143 107.558 44.6281 107.524 44.6528 107.5C44.6774 107.475 44.7108 107.461 44.7457 107.461C44.7632 107.46 44.7808 107.463 44.7972 107.469C44.8136 107.475 44.8285 107.485 44.8409 107.497C44.8533 107.51 44.8629 107.525 44.8692 107.541C44.8754 107.558 44.8781 107.575 44.8771 107.593V109.896C44.8828 110.05 44.8527 110.204 44.7891 110.344C44.7254 110.484 44.6301 110.608 44.5105 110.706C44.4519 110.732 44.3879 110.744 44.3237 110.74Z" fill="white"/>
<path d="M42.9613 108.755V108.533C42.9925 107.957 43.159 107.396 43.4475 106.896C43.7359 106.396 44.1382 105.971 44.6216 105.655C44.7949 105.512 45.0081 105.425 45.2324 105.407C45.4567 105.388 45.6813 105.439 45.8759 105.552C46.0704 105.665 46.2256 105.835 46.3205 106.039C46.4153 106.243 46.4453 106.471 46.4063 106.693V106.762L42.9613 108.755ZM45.3963 105.683C45.1663 105.695 44.9427 105.764 44.7461 105.884C44.3365 106.155 43.9896 106.511 43.7283 106.928C43.4671 107.344 43.2976 107.811 43.2311 108.298L46.1434 106.617C46.1559 106.454 46.1262 106.291 46.0571 106.143C45.9881 105.995 45.882 105.868 45.7491 105.773C45.6452 105.7 45.5231 105.657 45.3963 105.649V105.683Z" fill="white"/>
<path d="M48.9865 108.063C48.9516 108.063 48.9182 108.049 48.8935 108.024C48.8689 108 48.855 107.966 48.855 107.931V103.518C48.8505 103.499 48.8504 103.479 48.8547 103.459C48.8591 103.44 48.8677 103.422 48.88 103.406C48.8923 103.391 48.908 103.378 48.9258 103.37C48.9436 103.361 48.9632 103.357 48.983 103.357C49.0028 103.357 49.0224 103.361 49.0402 103.37C49.058 103.378 49.0737 103.391 49.086 103.406C49.0983 103.422 49.1069 103.44 49.1113 103.459C49.1156 103.479 49.1155 103.499 49.111 103.518V107.931C49.111 107.965 49.0981 107.998 49.075 108.022C49.0518 108.046 49.0201 108.061 48.9865 108.063Z" fill="white"/>
<path d="M48.6402 104.541H48.5849C48.5689 104.535 48.5545 104.525 48.5426 104.512C48.5307 104.5 48.5215 104.485 48.5157 104.469C48.5098 104.452 48.5074 104.435 48.5086 104.418C48.5098 104.401 48.5146 104.384 48.5226 104.369L48.9792 103.303L49.498 103.898C49.5209 103.922 49.5336 103.955 49.5336 103.988C49.5336 104.021 49.5209 104.054 49.498 104.078C49.4725 104.101 49.4392 104.114 49.4046 104.114C49.3701 104.114 49.3368 104.101 49.3113 104.078L49.0691 103.794L48.7717 104.486C48.7581 104.508 48.7382 104.525 48.7147 104.534C48.6912 104.544 48.6652 104.547 48.6402 104.541Z" fill="white"/>
<path d="M50.1834 107.371C50.1491 107.37 50.1167 107.355 50.0924 107.331C50.0681 107.307 50.0537 107.274 50.052 107.24V102.826C50.052 102.791 50.0658 102.758 50.0905 102.733C50.1151 102.709 50.1486 102.695 50.1834 102.695C50.2183 102.695 50.2517 102.709 50.2764 102.733C50.301 102.758 50.3149 102.791 50.3149 102.826V107.24C50.3132 107.274 50.2988 107.307 50.2745 107.331C50.2502 107.355 50.2178 107.37 50.1834 107.371Z" fill="white"/>
<path d="M49.8025 103.864H49.7541C49.7382 103.857 49.7238 103.847 49.7117 103.835C49.6996 103.823 49.69 103.808 49.6836 103.792C49.6772 103.776 49.674 103.759 49.6742 103.741C49.6744 103.724 49.6781 103.707 49.6849 103.691L50.1484 102.626L50.6603 103.221C50.6727 103.233 50.6825 103.248 50.6891 103.264C50.6958 103.28 50.6993 103.297 50.6993 103.314C50.6993 103.332 50.6958 103.349 50.6891 103.365C50.6825 103.381 50.6727 103.395 50.6603 103.408C50.6353 103.429 50.6034 103.441 50.5704 103.441C50.5374 103.441 50.5055 103.429 50.4805 103.408L50.2314 103.124L49.934 103.816C49.9189 103.835 49.8985 103.85 49.8752 103.859C49.852 103.867 49.8268 103.869 49.8025 103.864Z" fill="white"/>
<path d="M36.1747 118.1L16.5007 106.742V67.8087L36.1747 79.1607V118.1Z" fill="#E0E0E0"/>
<path d="M25.8328 77.7981L27.742 78.898V74.2978L25.8328 73.1909V77.7981Z" fill="#F5F5F5"/>
<path d="M27.742 74.2977L47.4091 62.9388L45.5067 61.8389L25.8328 73.1908L27.742 74.2977Z" fill="white"/>
<path d="M20.5062 99.3188L26.5384 102.778C26.8876 103.004 27.1782 103.311 27.3862 103.671C27.5942 104.032 27.7138 104.437 27.7352 104.853V108.575C27.7352 109.336 27.2025 109.647 26.5384 109.266L20.5062 105.808C20.156 105.581 19.8644 105.275 19.6552 104.914C19.446 104.554 19.3252 104.149 19.3025 103.732V100.011C19.3094 99.2496 19.8421 98.9383 20.5062 99.3188Z" fill="#F5F5F5"/>
<path d="M20.0359 100.253L20.2642 100.384V104.521L20.0359 104.383V100.253Z" fill="#E0E0E0"/>
<path d="M20.97 100.792L21.3643 101.021V105.157L20.97 104.922V100.792Z" fill="#E0E0E0"/>
<path d="M21.9036 101.325L22.1318 101.463V105.593L21.9036 105.462V101.325Z" fill="#E0E0E0"/>
<path d="M22.6095 101.726L23.0661 102.003V106.133L22.6095 105.863V101.726Z" fill="#E0E0E0"/>
<path d="M23.7722 102.404L24.0005 102.536V106.672L23.7722 106.541V102.404Z" fill="#E0E0E0"/>
<path d="M24.4426 102.785L24.9338 103.075V107.212L24.4426 106.921V102.785Z" fill="#E0E0E0"/>
<path d="M25.6394 103.484L25.8677 103.615V107.752L25.6394 107.613V103.484Z" fill="#E0E0E0"/>
<path d="M26.1719 103.788L26.2826 103.85V107.987L26.1719 107.918V103.788Z" fill="#E0E0E0"/>
<path d="M25.2106 103.255L25.3282 103.324V107.461L25.2106 107.392V103.255Z" fill="#E0E0E0"/>
<path d="M23.3286 102.155L23.4462 102.224V106.354L23.3286 106.292V102.155Z" fill="#E0E0E0"/>
<path d="M22.298 101.568L22.4156 101.63V105.767L22.298 105.697V101.568Z" fill="#E0E0E0"/>
<path d="M21.5649 101.159L21.6756 101.222V105.358L21.5649 105.289V101.159Z" fill="#E0E0E0"/>
<path d="M20.5619 100.55L20.6726 100.612V104.749L20.5619 104.68V100.55Z" fill="#E0E0E0"/>
<path d="M26.5667 104.023L26.8019 104.154V108.284L26.5667 108.153V104.023Z" fill="#E0E0E0"/>
<path d="M16.6874 174.991L92.1871 218.573C93.1153 219.044 94.1416 219.289 95.1825 219.289C96.2234 219.289 97.2496 219.044 98.1778 218.573L263.601 123.108C265.254 122.154 265.254 120.604 263.601 119.65L188.101 76.0682C187.174 75.594 186.147 75.3467 185.106 75.3467C184.064 75.3467 183.037 75.594 182.11 76.0682L16.6874 171.532C15.0341 172.487 15.0341 174.037 16.6874 174.991Z" fill="#455A64"/>
<path d="M57.4945 195.225C58.7817 195.875 60.2034 196.213 61.6452 196.213C63.0869 196.213 64.5086 195.875 65.7958 195.225C68.0994 193.897 68.0994 191.766 65.7958 190.417C64.5095 189.765 63.0875 189.425 61.6452 189.425C60.2028 189.425 58.7808 189.765 57.4945 190.417C55.1909 191.766 55.1909 193.911 57.4945 195.225Z" fill="#263238"/>
<path d="M93.6052 218.573L18.1055 174.991C16.6251 174.134 16.4729 172.805 17.642 171.851C16.9036 172.435 16.2965 173.168 15.8602 174.002C15.424 174.837 15.1684 175.753 15.1101 176.693V179.509C15.1669 180.548 15.4677 181.559 15.9881 182.46C16.5085 183.362 17.2338 184.128 18.1055 184.697L93.6052 228.278C94.5283 228.76 95.5594 228.999 96.6005 228.97V219.292C95.557 219.312 94.5258 219.065 93.6052 218.573Z" fill="#37474F"/>
<path d="M263.594 132.807C264.468 132.24 265.195 131.474 265.717 130.573C266.238 129.671 266.54 128.659 266.596 127.619V124.803C266.54 123.863 266.285 122.944 265.847 122.109C265.409 121.275 264.799 120.542 264.057 119.961C265.233 120.916 265.081 122.244 263.601 123.095L98.178 218.573C97.2542 219.053 96.2235 219.291 95.1826 219.265V228.998C96.2235 229.024 97.2542 228.786 98.178 228.306L263.594 132.807Z" fill="#263238"/>
<path d="M104.625 209.545L32.3632 167.804C31.3671 167.23 31.3671 166.296 32.3632 165.729L172.045 85.0616C172.603 84.7784 173.219 84.6309 173.844 84.6309C174.469 84.6309 175.085 84.7784 175.642 85.0616L247.932 126.796C248.922 127.37 248.922 128.297 247.932 128.871L108.195 209.545C107.641 209.824 107.03 209.969 106.41 209.969C105.79 209.969 105.179 209.824 104.625 209.545Z" fill="white"/>
<path d="M75.5085 186.239L83.9412 181.369L81.1326 179.75L72.7 184.613L75.5085 186.239Z" fill="#0284C7"/>
<path d="M176.673 127.833L185.105 122.963L182.29 121.344L173.864 126.214L176.673 127.833Z" fill="#0284C7"/>
<path d="M193.531 118.1L201.963 113.23L199.155 111.611L190.722 116.475L193.531 118.1Z" fill="#0284C7"/>
<path d="M220.593 101.048C220.921 101.211 221.282 101.297 221.648 101.297C222.014 101.297 222.376 101.211 222.703 101.048C222.83 101.004 222.94 100.922 223.018 100.813C223.096 100.704 223.138 100.573 223.138 100.439C223.138 100.305 223.096 100.174 223.018 100.065C222.94 99.9556 222.83 99.8736 222.703 99.8302C222.377 99.6632 222.015 99.5761 221.648 99.5761C221.281 99.5761 220.92 99.6632 220.593 99.8302C220.466 99.8736 220.356 99.9556 220.278 100.065C220.2 100.174 220.158 100.305 220.158 100.439C220.158 100.573 220.2 100.704 220.278 100.813C220.356 100.922 220.466 101.004 220.593 101.048Z" fill="#263238"/>
<path d="M223.962 110.601C224.615 110.932 225.337 111.104 226.069 111.104C226.8 111.104 227.522 110.932 228.175 110.601C229.337 109.909 229.337 108.837 228.175 108.166C227.522 107.835 226.8 107.663 226.069 107.663C225.337 107.663 224.615 107.835 223.962 108.166C222.8 108.837 222.8 109.93 223.962 110.601Z" fill="#263238"/>
<path d="M220.988 106.368C221.763 105.918 221.721 105.171 220.898 104.694L207.063 96.6898C206.617 96.4511 206.122 96.3216 205.616 96.312C205.111 96.3024 204.611 96.4129 204.157 96.6345C203.382 97.0842 203.424 97.8313 204.247 98.3086L218.124 106.312C218.564 106.544 219.052 106.669 219.549 106.679C220.047 106.688 220.539 106.582 220.988 106.368Z" fill="#263238"/>
<path d="M197.371 73.9103L197.842 73.6336C197.517 74.8141 197.358 76.0342 197.371 77.2585V78.9464C197.371 85.0063 204.642 100.488 207.319 105.967C207.595 106.541 203.922 110.45 203.922 110.45L208.287 107.932C208.287 107.932 219.196 98.9385 219.196 91.5504V89.8625C219.196 82.4398 214.313 73.6059 208.287 70.1263C205.243 68.3762 202.497 68.3139 200.519 69.6421L196.368 72.0218L197.371 73.9103ZM202.829 79.5759C202.829 76.1171 205.271 74.6851 208.287 76.4284C208.038 78.6628 212.12 85.622 213.738 85.8779C213.738 89.3368 211.296 90.7687 208.287 89.0255C206.703 87.9878 205.386 86.5915 204.443 84.9497C203.499 83.3079 202.956 81.4669 202.857 79.5759H202.829Z" fill="#0284C7"/>
<path d="M192.882 81.651C193.006 89.0667 204.268 110.449 204.268 110.449C204.268 110.449 215.032 101.304 214.914 93.8884V92.2004C214.79 84.7847 209.761 76.0269 203.673 72.651C197.586 69.2752 192.757 72.5404 192.882 79.963V81.651ZM198.347 82.1905C198.291 78.7317 200.712 77.2582 203.749 78.9461C205.354 79.9553 206.699 81.3287 207.674 82.955C208.649 84.5812 209.226 86.4145 209.36 88.3058C209.422 91.7646 207.001 93.2381 203.957 91.5502C202.354 90.539 201.01 89.165 200.036 87.5392C199.061 85.9134 198.483 84.0812 198.347 82.1905Z" fill="#0284C7"/>
<path opacity="0.1" d="M192.882 81.651C193.006 89.0667 204.268 110.449 204.268 110.449C204.268 110.449 215.032 101.304 214.914 93.8884V92.2004C214.79 84.7847 209.761 76.0269 203.673 72.651C197.586 69.2752 192.757 72.5404 192.882 79.963V81.651ZM198.347 82.1905C198.291 78.7317 200.712 77.2582 203.749 78.9461C205.354 79.9553 206.699 81.3287 207.674 82.955C208.649 84.5812 209.226 86.4145 209.36 88.3058C209.422 91.7646 207.001 93.2381 203.957 91.5502C202.354 90.539 201.01 89.165 200.036 87.5392C199.061 85.9134 198.483 84.0812 198.347 82.1905Z" fill="black"/>
<path d="M87.3799 180.553C94.3737 184.579 110.769 181.653 124.002 174.009L160.355 153.028C173.588 145.384 178.638 135.934 171.63 131.915C164.623 127.896 148.214 130.836 134.967 138.473L98.6834 159.427C85.4568 167.064 80.393 176.548 87.3799 180.553Z" fill="#F0F0F0"/>
<path d="M193.221 4.65702H193.255L199.239 1.19818H199.288C203.058 -0.711107 208.094 -0.185358 213.517 3.34267C224.42 10.3572 232.742 26.5446 232.112 39.4876C231.794 45.9418 229.345 50.3692 225.561 52.3199H225.526L219.536 55.7788H219.494C215.724 57.695 210.681 57.1623 205.251 53.6412C194.355 46.6198 186.033 30.4393 186.663 17.4963C186.995 11.0351 189.478 6.60781 193.221 4.65702Z" fill="#37474F"/>
<path d="M219.839 55.599L225.546 52.2785H225.588C229.337 50.3208 231.814 45.8934 232.132 39.4461C232.409 33.6768 230.908 27.2641 228.196 21.308L222.205 24.7668C224.924 30.7229 226.425 37.1356 226.141 42.9119C225.844 49.207 223.464 53.5859 219.839 55.599Z" fill="#263238"/>
<path d="M205.278 53.6341C194.383 46.6127 186.061 30.4322 186.69 17.4892C187.32 4.54615 196.679 -0.261646 207.554 6.7529C218.428 13.7674 226.778 29.9548 226.149 42.8978C225.519 55.8409 216.173 60.6487 205.278 53.6341Z" fill="#455A64"/>
<path d="M214.41 52.7213C220.836 53.0326 221.881 45.8036 222.019 42.6907C222.572 31.2765 214.921 16.4034 205.313 10.2121C203.265 8.77796 200.883 7.89636 198.395 7.65254C191.975 7.34124 190.931 14.5702 190.786 17.6832C190.232 29.0974 197.876 43.9704 207.492 50.1964C209.539 51.6305 211.922 52.5121 214.41 52.7559V52.7213Z" fill="#FAFAFA"/>
<path d="M205.16 32.3347C205.236 32.3349 205.311 32.3208 205.382 32.2931C205.526 32.2462 205.651 32.1531 205.737 32.0281C205.824 31.903 205.866 31.7531 205.859 31.6014V15.1165C205.859 14.933 205.786 14.7571 205.656 14.6274C205.527 14.4976 205.351 14.4247 205.167 14.4247C204.984 14.4247 204.808 14.4976 204.678 14.6274C204.548 14.7571 204.475 14.933 204.475 15.1165V29.5952L196.776 19.7029C196.662 19.5562 196.495 19.4606 196.311 19.4372C196.126 19.4139 195.941 19.4647 195.794 19.5784C195.647 19.6922 195.551 19.8596 195.528 20.0438C195.505 20.228 195.555 20.414 195.669 20.5607L204.628 32.0649C204.691 32.1468 204.771 32.2135 204.863 32.2602C204.956 32.3069 205.057 32.3323 205.16 32.3347Z" fill="#37474F"/>
<path d="M209.131 44.5309C209.163 44.5372 209.196 44.5372 209.228 44.5309C209.301 44.5084 209.363 44.4584 209.4 44.3914C209.438 44.3243 209.448 44.2454 209.428 44.1712L205.547 31.1036C205.525 31.0293 205.475 30.9668 205.407 30.9298C205.339 30.8929 205.259 30.8845 205.184 30.9065C205.11 30.9285 205.047 30.9791 205.01 31.0472C204.974 31.1153 204.965 31.1954 204.987 31.2697L208.861 44.3372C208.881 44.3932 208.917 44.4418 208.966 44.4764C209.014 44.511 209.071 44.53 209.131 44.5309Z" fill="#0284C7"/>
<path d="M205.381 28.3291C204.095 27.5059 202.995 28.0731 202.926 29.595C202.93 30.4251 203.13 31.2425 203.51 31.9806C203.89 32.7187 204.439 33.3566 205.112 33.8425C206.391 34.6726 207.491 34.1054 207.567 32.5835C207.562 31.7527 207.361 30.9349 206.981 30.196C206.601 29.457 206.053 28.8176 205.381 28.3291Z" fill="#0284C7"/>
<path d="M92.3738 176.506L100.8 171.636L97.9909 170.017L89.5652 174.881L92.3738 176.506Z" fill="#0284C7"/>
<path d="M109.232 166.773L117.665 161.903L114.849 160.285L106.424 165.148L109.232 166.773Z" fill="#0284C7"/>
<path d="M105.766 164.788C105.766 168.855 102.916 173.781 99.3952 175.856C97.5205 176.942 95.8325 176.977 94.6704 176.16C94.2018 175.792 93.817 175.329 93.5415 174.8C93.266 174.272 93.106 173.691 93.0724 173.096C93.309 172.985 93.5399 172.863 93.7642 172.729C97.2853 170.702 100.135 165.756 100.135 161.661C100.139 161.358 100.12 161.055 100.08 160.755C100.608 160.476 101.188 160.309 101.783 160.266C102.379 160.223 102.977 160.305 103.539 160.506C104.922 161.087 105.766 162.588 105.766 164.788Z" fill="#263238"/>
<path d="M106.341 156.431L106.223 156.362C104.453 155.421 102.073 155.594 99.3957 157.13C93.9653 160.264 89.5587 167.887 89.5587 174.161C89.5587 177.316 90.6725 179.523 92.4711 180.546C94.2697 181.57 96.6978 181.397 99.3888 179.855C104.819 176.721 109.219 169.091 109.219 162.816C109.226 159.662 108.133 157.455 106.341 156.431ZM99.4234 175.842C97.5417 176.928 95.8538 176.963 94.6917 176.14C93.6678 175.448 93.0452 174.065 93.0452 172.162C93.0452 168.101 95.9022 163.169 99.4234 161.094C101.028 160.167 102.488 160.008 103.574 160.485C104.916 161.059 105.76 162.56 105.76 164.774C105.767 168.869 102.917 173.815 99.3957 175.856L99.4234 175.842Z" fill="#37474F"/>
<path d="M103.9 160.672L103.824 160.63C102.675 160.015 101.119 160.132 99.3962 161.122C95.8751 163.155 93.0181 168.102 93.0181 172.19C93.0181 174.265 93.7098 175.649 94.9066 176.341C96.1034 177.032 97.6737 176.894 99.3962 175.884C102.917 173.85 105.767 168.904 105.767 164.816C105.767 162.768 105.055 161.329 103.9 160.672ZM99.3962 174.404C97.8881 175.275 96.5323 175.303 95.5914 174.639C94.7752 174.065 94.2702 172.965 94.2702 171.443C94.3671 169.665 94.8817 167.935 95.7723 166.392C96.6629 164.85 97.9045 163.54 99.3962 162.567C99.8808 162.229 100.438 162.009 101.023 161.923C101.607 161.838 102.204 161.89 102.765 162.076C103.844 162.54 104.522 163.743 104.522 165.535C104.426 167.312 103.911 169.042 103.021 170.583C102.13 172.124 100.888 173.433 99.3962 174.404Z" fill="#0284C7"/>
<path d="M126.091 157.033L134.523 152.17L131.715 150.544L123.282 155.414L126.091 157.033Z" fill="#0284C7"/>
<path d="M142.956 147.3L151.382 142.436L148.573 140.811L140.141 145.681L142.956 147.3Z" fill="#0284C7"/>
<path d="M159.815 137.567L168.24 132.704L165.432 131.078L156.999 135.948L159.815 137.567Z" fill="#0284C7"/>
<path d="M117.859 92.3042C117.947 92.1865 118.071 92.1 118.211 92.0571C118.352 92.0143 118.503 92.0174 118.642 92.0659C118.78 92.1145 118.9 92.2061 118.983 92.3273C119.066 92.4485 119.109 92.5931 119.104 92.7401C119.159 93.1338 119.118 93.5348 118.987 93.91C118.856 94.2852 118.638 94.624 118.35 94.8984C117.797 95.3757 117.237 95.182 117.105 94.4626C117.052 94.0688 117.092 93.668 117.223 93.2929C117.354 92.9178 117.572 92.579 117.859 92.3042Z" fill="#0284C7"/>
<path d="M124.348 95.3617L118.71 92.1035L117.472 95.085L123.13 98.3502L124.348 95.3617Z" fill="#0284C7"/>
<path d="M123.483 95.5486C124.037 95.0782 124.59 95.2719 124.729 95.9914C124.78 96.3845 124.737 96.7842 124.605 97.1579C124.473 97.5317 124.255 97.8691 123.968 98.1428C123.414 98.6201 122.854 98.4264 122.722 97.7069C122.672 97.3128 122.715 96.9122 122.847 96.5374C122.979 96.1627 123.197 95.824 123.483 95.5486Z" fill="#0284C7"/>
<path d="M166.815 122.832C166.815 122.971 166.815 123.095 166.815 123.233C166.815 123.51 166.815 123.794 166.815 124.077C165.695 123.6 164.235 123.759 162.63 124.686C159.109 126.72 156.252 131.666 156.252 135.755C156.252 137.65 156.875 139.02 157.899 139.732C157.611 139.937 157.313 140.126 157.006 140.299L156.681 140.465L155.706 144.139L150.061 140.991C148.276 139.96 147.176 137.761 147.176 134.62C147.176 128.346 151.576 120.722 157.006 117.582C159.69 116.032 162.118 115.873 163.924 116.89L169.458 119.989L169.576 120.058L166.815 122.832Z" fill="#455A64"/>
<path d="M169.569 119.996L169.451 119.927C167.68 118.986 165.301 119.159 162.624 120.695C157.193 123.828 152.787 131.452 152.787 137.726C152.787 140.88 153.9 143.087 155.699 144.111C157.498 145.135 159.926 144.962 162.617 143.419C168.047 140.285 172.447 132.655 172.447 126.381C172.467 123.226 171.354 121.02 169.569 119.996ZM162.651 139.407C160.77 140.493 159.082 140.528 157.92 139.704C156.896 139.013 156.273 137.629 156.273 135.727C156.273 131.666 159.13 126.734 162.651 124.658C164.256 123.731 165.716 123.572 166.836 124.05C168.178 124.624 169.022 126.125 169.022 128.339C169.009 132.434 166.145 137.38 162.624 139.407H162.651Z" fill="#37474F"/>
<path d="M169.009 128.366C169.009 132.434 166.159 137.359 162.638 139.434C160.763 140.521 159.075 140.555 157.913 139.739C157.444 139.371 157.06 138.907 156.784 138.379C156.509 137.85 156.349 137.269 156.315 136.674C156.552 136.564 156.782 136.441 157.007 136.308C160.528 134.281 163.378 129.335 163.378 125.239C163.381 124.936 163.363 124.633 163.323 124.333C163.85 124.054 164.43 123.888 165.026 123.845C165.621 123.802 166.219 123.883 166.781 124.084C168.151 124.665 169.009 126.152 169.009 128.366Z" fill="#263238"/>
<path d="M167.127 124.236L167.051 124.188C165.903 123.579 164.339 123.69 162.624 124.686C159.102 126.72 156.245 131.659 156.245 135.754C156.245 137.83 156.937 139.213 158.134 139.905C159.331 140.597 160.901 140.451 162.624 139.441C166.145 137.415 168.995 132.468 168.995 128.373C169.009 126.332 168.317 124.9 167.127 124.236ZM162.624 137.961C161.109 138.84 159.753 138.867 158.819 138.203C157.996 137.629 157.498 136.529 157.498 135.007C157.594 133.229 158.109 131.499 159 129.957C159.89 128.415 161.132 127.104 162.624 126.132C163.91 125.385 165.086 125.253 165.986 125.641C167.065 126.104 167.743 127.308 167.743 129.099C167.647 130.875 167.133 132.603 166.243 134.143C165.354 135.683 164.114 136.991 162.624 137.961Z" fill="#0284C7"/>
<path d="M156.999 130.434L172.91 121.248C174.757 120.176 168.759 113.915 164.297 113.493C161.841 113.196 159.349 113.432 156.992 114.185C156.992 114.185 160.389 118.536 159.808 121.006C159.227 123.475 156.999 130.434 156.999 130.434Z" fill="#0284C7"/>
<path d="M134.524 104.472C134.524 104.472 157.587 116.108 158.583 116.807C159.579 117.505 158.583 125.62 156.999 130.435C155.415 135.249 152.98 142.651 152.005 144.726C151.029 146.802 149.756 147.577 147.418 148.926L130.816 158.52L108.34 161.26L99.4163 156.417L101.741 141.814C101.741 141.814 125.627 129.106 128.899 127.218C132.172 125.329 141.849 116.468 134.524 104.472Z" fill="#0284C7"/>
<path opacity="0.2" d="M134.524 104.472C134.524 104.472 157.587 116.108 158.583 116.807C159.579 117.505 158.583 125.62 156.999 130.435C155.415 135.249 152.98 142.651 152.005 144.726C151.029 146.802 149.756 147.577 147.418 148.926L130.816 158.52L108.34 161.26L99.4163 156.417L101.741 141.814C101.741 141.814 125.627 129.106 128.899 127.218C132.172 125.329 141.849 116.468 134.524 104.472Z" fill="black"/>
<path d="M159.026 127.66C161.102 122.085 162.651 117.464 162.388 114.344C162.07 110.643 160.687 107.62 154.585 106.098C148.484 104.576 139.954 104.604 139.954 104.604L137.36 106.105C137.36 106.105 154.903 116.274 156.896 117.381C158.113 118.072 159.414 121.123 157.027 130.441L157.435 130.676C157.636 130.801 158.362 129.452 159.026 127.66Z" fill="#0284C7"/>
<path opacity="0.3" d="M159.026 127.66C161.102 122.085 162.651 117.464 162.388 114.344C162.07 110.643 160.687 107.62 154.585 106.098C148.484 104.576 139.954 104.604 139.954 104.604L137.36 106.105C137.36 106.105 154.903 116.274 156.896 117.381C158.113 118.072 159.414 121.123 157.027 130.441L157.435 130.676C157.636 130.801 158.362 129.452 159.026 127.66Z" fill="white"/>
<path d="M145.737 110.961L148.573 109.342C148.573 109.342 148.407 99.5123 144.271 97.1257C140.134 94.7391 126.091 96.3648 126.091 96.3648L123.282 97.9835L145.737 110.961Z" fill="#0284C7"/>
<path d="M136.537 99.3742C135.188 100.156 135.188 101.415 136.537 102.19C137.294 102.575 138.13 102.776 138.979 102.776C139.828 102.776 140.665 102.575 141.421 102.19C142.763 101.415 142.763 100.149 141.421 99.3742C140.664 98.9923 139.827 98.7934 138.979 98.7934C138.131 98.7934 137.295 98.9923 136.537 99.3742Z" fill="#F0F0F0"/>
<path d="M140.854 104.071C139.906 104.624 139.906 105.517 140.854 106.063C141.389 106.337 141.982 106.48 142.583 106.48C143.184 106.48 143.777 106.337 144.313 106.063C145.267 105.517 145.267 104.624 144.313 104.071C143.776 103.8 143.184 103.659 142.583 103.659C141.982 103.659 141.39 103.8 140.854 104.071Z" fill="#F0F0F0"/>
<path d="M129.986 98.1222C129.031 98.6687 129.031 99.5611 129.986 100.115C130.522 100.385 131.114 100.526 131.715 100.526C132.316 100.526 132.908 100.385 133.444 100.115C134.399 99.5611 134.399 98.6687 133.444 98.1222C132.909 97.8484 132.316 97.7056 131.715 97.7056C131.114 97.7056 130.521 97.8484 129.986 98.1222Z" fill="#F0F0F0"/>
<path d="M146.18 108.111C146.733 107.634 147.287 107.828 147.425 108.547C147.476 108.941 147.434 109.342 147.302 109.717C147.169 110.092 146.951 110.43 146.664 110.706C146.576 110.823 146.453 110.91 146.312 110.953C146.171 110.996 146.021 110.992 145.882 110.944C145.743 110.895 145.623 110.804 145.54 110.683C145.457 110.561 145.414 110.417 145.419 110.27C145.366 109.875 145.407 109.474 145.539 109.099C145.672 108.724 145.891 108.385 146.18 108.111Z" fill="#0284C7"/>
<path d="M152.634 111.169L146.989 107.911L145.758 110.892L151.41 114.15L152.634 111.169Z" fill="#0284C7"/>
<path d="M151.762 111.356C151.851 111.238 151.974 111.151 152.115 111.109C152.255 111.066 152.406 111.069 152.545 111.117C152.683 111.166 152.803 111.258 152.886 111.379C152.97 111.5 153.012 111.645 153.008 111.792C153.06 112.186 153.019 112.587 152.886 112.962C152.754 113.337 152.535 113.676 152.247 113.95C151.693 114.427 151.14 114.227 151.001 113.514C150.95 113.12 150.992 112.719 151.124 112.344C151.256 111.969 151.475 111.63 151.762 111.356Z" fill="#0284C7"/>
<path d="M151.762 111.356C151.851 111.238 151.974 111.151 152.115 111.109C152.255 111.066 152.406 111.069 152.545 111.117C152.683 111.166 152.803 111.258 152.886 111.379C152.97 111.5 153.012 111.645 153.008 111.792C153.06 112.186 153.019 112.587 152.886 112.962C152.754 113.337 152.535 113.676 152.247 113.95C151.693 114.427 151.14 114.227 151.001 113.514C150.95 113.12 150.992 112.719 151.124 112.344C151.256 111.969 151.475 111.63 151.762 111.356Z" fill="black"/>
<path d="M103.588 159.254C103.588 159.392 103.588 159.517 103.588 159.655C103.588 159.932 103.588 160.215 103.588 160.499C102.467 160.022 101.007 160.181 99.4369 161.108C95.9158 163.142 93.0588 168.088 93.0588 172.176C93.0588 174.072 93.6814 175.441 94.7052 176.154C94.4178 176.358 94.1199 176.548 93.8128 176.721L93.4877 176.887L92.5123 180.56L86.8675 177.413C85.0827 176.382 83.9828 174.182 83.9828 171.042C83.9828 164.767 88.3824 157.144 93.8128 154.003C96.4969 152.454 98.925 152.295 100.731 153.312L106.265 156.411L106.382 156.48L103.588 159.254Z" fill="#455A64"/>
<path d="M86.75 148.276L82.5371 162.879L90.9698 167.749L95.3348 153.236L86.75 148.276Z" fill="#0284C7"/>
<path opacity="0.2" d="M86.75 148.276L82.5371 162.879L90.9698 167.749L95.3348 153.236L86.75 148.276Z" fill="black"/>
<path d="M86.7501 148.275C86.7501 148.275 91.5303 152.336 95.335 153.235C100.33 154.446 108.271 154.577 111.087 154.771C115.389 155.068 118.641 155.061 120.163 154.515C122.134 153.823 127.433 150.745 128.9 149.901C131.708 148.282 132.905 141.911 125.164 140.168C119.93 139.083 114.599 138.538 109.253 138.542L86.7501 148.275Z" fill="#0284C7"/>
<path d="M134.42 146.407C134.18 147.009 134.017 147.639 133.936 148.282C133.713 148.95 133.661 149.664 133.784 150.357C134.311 151.23 135.141 151.877 136.115 152.177C136.817 152.333 137.543 152.343 138.249 152.206C138.955 152.069 139.625 151.788 140.217 151.381C141.649 150.524 142.729 149.486 144.762 148.905C146.216 148.597 147.585 147.976 148.775 147.085C149.902 146.179 151.41 143.675 149.252 143.094C147.094 142.513 142.403 144.56 138.128 144.747L134.42 146.407Z" fill="#37474F"/>
<path d="M134.42 143.737V146.933C134.551 147.292 134.779 147.608 135.078 147.846C135.377 148.084 135.736 148.235 136.115 148.282C136.463 148.333 136.817 148.295 137.146 148.171C137.664 147.974 138.113 147.628 138.438 147.179C138.762 146.729 138.948 146.194 138.972 145.64L139.097 143.737H134.42Z" fill="#FFA8A7"/>
<path d="M140.508 123.973C140.508 127.951 139.387 145.149 139.387 145.149C139.387 145.149 137.761 147.224 134.226 145.149L133.037 125.931L140.508 123.973Z" fill="#37474F"/>
<path d="M121.968 140.922L133.036 134.544C133.49 134.306 133.869 133.948 134.134 133.51C134.399 133.072 134.539 132.569 134.539 132.057C134.539 131.545 134.399 131.042 134.134 130.604C133.869 130.166 133.49 129.808 133.036 129.57L124.79 124.811C124.326 124.575 123.813 124.453 123.292 124.453C122.772 124.453 122.259 124.575 121.795 124.811L110.726 131.189C110.275 131.428 109.897 131.787 109.634 132.225C109.37 132.663 109.231 133.164 109.231 133.676C109.231 134.187 109.37 134.689 109.634 135.127C109.897 135.565 110.275 135.923 110.726 136.163L118.972 140.922C119.437 141.157 119.95 141.28 120.47 141.28C120.99 141.28 121.504 141.157 121.968 140.922Z" fill="#0284C7"/>
<path d="M121.968 140.922L133.036 134.544C133.49 134.306 133.869 133.948 134.134 133.51C134.399 133.072 134.539 132.569 134.539 132.057C134.539 131.545 134.399 131.042 134.134 130.604C133.869 130.166 133.49 129.808 133.036 129.57L124.79 124.811C124.326 124.575 123.813 124.453 123.292 124.453C122.772 124.453 122.259 124.575 121.795 124.811L110.726 131.189C110.275 131.428 109.897 131.787 109.634 132.225C109.37 132.663 109.231 133.164 109.231 133.676C109.231 134.187 109.37 134.689 109.634 135.127C109.897 135.565 110.275 135.923 110.726 136.163L118.972 140.922C119.437 141.157 119.95 141.28 120.47 141.28C120.99 141.28 121.504 141.157 121.968 140.922Z" fill="white"/>
<path d="M110.727 132.918L118.973 137.678C119.437 137.913 119.95 138.035 120.47 138.035C120.991 138.035 121.504 137.913 121.968 137.678L133.036 131.299C133.217 131.238 133.374 131.122 133.485 130.967C133.596 130.812 133.656 130.626 133.656 130.435C133.656 130.244 133.596 130.058 133.485 129.903C133.374 129.748 133.217 129.631 133.036 129.57L124.79 124.811C124.326 124.575 123.813 124.453 123.293 124.453C122.772 124.453 122.259 124.575 121.795 124.811L110.727 131.189C110.546 131.25 110.389 131.366 110.278 131.522C110.167 131.677 110.107 131.863 110.107 132.054C110.107 132.244 110.167 132.43 110.278 132.585C110.389 132.741 110.546 132.857 110.727 132.918Z" fill="#0284C7"/>
<path d="M117.471 90.5814L116.067 96.3715L110.035 96.7382L111.335 88.7137L117.471 90.5814Z" fill="#FFA8A7"/>
<path d="M123.351 86.2238C123.351 86.2238 124.043 88.6727 123.76 88.8111C123.324 88.8775 122.881 88.8775 122.445 88.8111L123.351 86.2238Z" fill="#F28F8F"/>
<path d="M122.196 78.4062C123.165 79.5476 124.05 81.4223 123.365 86.0157C122.618 91.0379 121.691 91.619 120.944 92.1032C119.969 92.7397 116.067 92.4007 114.967 91.5982C113.646 90.6367 111.605 87.586 111.121 84.5768C110.554 81.0418 111.737 77.1195 114.338 76.4485C117.997 75.5008 121.373 77.4377 122.196 78.4062Z" fill="#FFA8A7"/>
<path d="M110.727 90.3396C111.661 91.3081 113.577 91.5709 114.781 91.7923C115.984 92.0137 119.685 92.2558 120.778 89.6202C121.871 86.9845 121.124 85.0891 122.466 84.4526C123.808 83.8162 125.15 83.4012 125.503 83.0691C125.856 82.7371 125.863 78.3997 122.259 76.1514C118.655 73.9032 113.134 73.3843 109.503 77.9431C106.749 81.4642 107.877 87.365 110.727 90.3396Z" fill="#455A64"/>
<path d="M114.359 91.8266C115.293 91.9097 118.247 91.4462 119.139 90.2287C120.031 89.0111 120.391 86.8321 120.522 85.6907C120.535 85.2411 120.699 84.8091 120.99 84.4658C121.28 84.1225 121.679 83.8884 122.12 83.8021C123.013 83.5185 124.984 82.55 124.984 82.55V82.0104C125.62 81.9705 126.258 81.9705 126.894 82.0104C127.309 82.0865 127.08 82.7022 126.029 83.2349C124.977 83.7675 122.093 84.7983 121.65 85.1511C121.207 85.5039 121 86.9912 120.647 88.5753C120.294 90.1595 119.201 92.5253 114.359 91.8266Z" fill="#37474F"/>
<path d="M122.66 98.3779L126.119 96.3926C126.451 95.3895 125.918 94.8845 124.978 94.9468C124.037 95.009 124.327 94.0959 123.753 93.8399C122.999 93.4941 122.57 93.6878 122.231 93.5286C121.892 93.3695 121.747 92.9683 121.304 92.9199C119.326 92.7331 117.977 95.5555 117.977 95.5555L122.66 98.3779Z" fill="#F28F8F"/>
<path d="M99.1812 123.78C99.1812 123.78 114.462 116.205 117.126 114.981C119.789 113.756 123.967 111.979 126.188 111.979C127.056 112.05 127.868 112.433 128.477 113.055C129.086 113.678 129.449 114.499 129.501 115.368C129.53 116.703 129.454 118.037 129.273 119.36C125.075 120.737 120.784 121.817 116.434 122.59C110.077 123.697 99.1812 123.78 99.1812 123.78Z" fill="#37474F"/>
<path d="M100.841 119.401C100.841 122.541 100.544 125.807 101.851 128.103C103.159 130.4 110.243 135.713 116.911 134.599C121.269 133.866 134.206 127.909 134.206 127.909C134.206 127.909 140.48 125.606 140.508 123.966C140.549 121.552 140.383 118.149 134.911 118.294C129.923 118.425 115.21 121.497 115.21 121.497L100.841 119.401Z" fill="#455A64"/>
<path d="M105.11 94.5179C107.476 92.0483 109.074 91.8408 110.208 92.1452C112.815 92.8914 115.34 93.902 117.742 95.1613C117.742 95.1613 116.828 104.002 121.152 106.548V120.328C121.152 120.328 121.021 121.822 119.139 123.309C117.479 124.617 113.722 125.938 109.24 125.565C103.913 125.122 100.842 119.401 100.842 119.401C100.842 119.401 100.703 108.132 101.457 103.656C102.343 98.4333 104.294 95.3757 105.11 94.5179Z" fill="#455A64"/>
<path d="M121.152 107.219C121.152 107.219 118.537 105.143 117.741 102.445C117.741 102.445 118.053 106.679 121.152 108.824V107.219Z" fill="#37474F"/>
<path d="M145.357 113.722C146.599 113.773 147.82 113.394 148.816 112.649C148.816 112.649 150.019 110.311 151.5 110.512C151.5 110.512 151.763 109.516 151.154 109.19C150.545 108.865 150.282 108.955 150.033 108.609C149.784 108.264 149.756 107.62 148.65 107.62C148.193 107.62 148.255 107.295 147.148 107.164C146.042 107.032 144.949 109.585 144.139 109.585L145.357 113.722Z" fill="#FFA8A7"/>
<path d="M117.741 95.1611C121.539 95.7491 122.916 96.8767 124.299 98.1564C125.683 99.4362 134.15 107.931 134.15 107.931L144.402 109.405C144.941 109.841 145.336 110.429 145.537 111.093C145.952 112.296 145.578 113.611 145.184 113.922C145.184 113.922 135.015 114.531 133.016 114.15C131.016 113.77 121.117 107.198 121.117 107.198C120.171 106.484 119.377 105.588 118.783 104.563C118.189 103.538 117.807 102.404 117.658 101.228C117.015 97.0565 117.741 95.1611 117.741 95.1611Z" fill="#455A64"/>
<path d="M108.624 131.7L92.9138 150.876C92.7394 150.898 92.5639 150.91 92.3881 150.91C91.7651 150.92 91.1495 150.775 90.5964 150.488L77.3283 142.824L76.429 142.305C75.9378 142.021 75.5297 140.859 75.5297 139.711V136.48C75.5291 133.162 76.4021 129.901 78.0608 127.027C79.7196 124.153 82.1056 121.766 84.9792 120.106L100.821 110.961L117.679 120.694L108.624 131.7Z" fill="#0284C7"/>
<g opacity="0.1">
<path opacity="0.1" d="M108.624 131.7L92.9138 150.876C92.7394 150.898 92.5639 150.91 92.3881 150.91C91.7651 150.92 91.1495 150.775 90.5964 150.488L77.3283 142.824L76.429 142.305C75.9378 142.021 75.5297 140.859 75.5297 139.711V136.48C75.5291 133.162 76.4021 129.901 78.0608 127.027C79.7196 124.153 82.1056 121.766 84.9792 120.106L100.821 110.961L117.679 120.694L108.624 131.7Z" fill="black"/>
</g>
<path d="M103.207 138.314L117.658 120.701L100.8 110.968L84.9653 120.106C82.917 121.292 81.11 122.853 79.6387 124.707L103.207 138.314Z" fill="#0284C7"/>
<path d="M117.659 134.841C117.659 135.99 117.257 137.152 116.759 137.435L115.86 137.954L94.166 150.482C93.7713 150.695 93.339 150.829 92.8932 150.876C92.7188 150.899 92.5432 150.91 92.3674 150.911V146.214C92.3669 142.895 93.2406 139.634 94.9007 136.759C96.5607 133.885 98.9486 131.498 101.824 129.84L103.616 128.809L117.659 120.695V134.841Z" fill="#0284C7"/>
<g opacity="0.2">
<path opacity="0.2" d="M117.659 134.841C117.659 135.99 117.257 137.152 116.759 137.435L115.86 137.954L94.166 150.482C93.7713 150.695 93.339 150.829 92.8932 150.876C92.7188 150.899 92.5432 150.91 92.3674 150.911V146.214C92.3669 142.895 93.2406 139.634 94.9007 136.759C96.5607 133.885 98.9486 131.498 101.824 129.84L103.616 128.809L117.659 120.695V134.841Z" fill="black"/>
</g>
<path d="M122.314 158.569L130.802 158.541L142.95 151.527L131.051 160.126L122.093 160.25L122.314 158.569Z" fill="#E0E0E0"/>
<path d="M101.706 170.647C101.706 170.647 117.008 164.878 118.308 164.2C119.835 163.265 121.283 162.207 122.639 161.038C122.916 160.672 123.046 160.216 123.003 159.759C122.961 159.303 122.75 158.878 122.411 158.569C122.411 158.569 116.185 158.285 114.587 158.776C113.694 159.046 99.2916 163.667 99.2916 163.667L101.706 170.647Z" fill="#E0E0E0"/>
<path d="M101.022 164.2C99.7558 163.114 98.4829 163.564 98.1716 165.196C98.0527 166.097 98.148 167.013 98.4497 167.87C98.7514 168.727 99.251 169.501 99.908 170.128C101.174 171.215 102.447 170.772 102.758 169.132C102.876 168.232 102.781 167.316 102.479 166.459C102.177 165.602 101.678 164.828 101.022 164.2Z" fill="#455A64"/>
</svg>
